<?xml version="1.0" encoding="utf-8"?>
<!-- Generator: Adobe Illustrator 17.1.0, SVG Export Plug-In . SVG Version: 6.00 Build 0)  -->
<!DOCTYPE svg PUBLIC "-//W3C//DTD SVG 1.1//EN" "http://www.w3.org/Graphics/SVG/1.1/DTD/svg11.dtd">
<svg version="1.1" id="Layer_1" xmlns="http://www.w3.org/2000/svg" xmlns:xlink="http://www.w3.org/1999/xlink" x="0px" y="0px"
	 viewBox="0 0 512 511.6" enable-background="new 0 0 512 511.6" xml:space="preserve">
<g>
	<defs>
		<rect id="SVGID_1_" width="512" height="511.6"/>
	</defs>
	<clipPath id="SVGID_2_">
		<use xlink:href="#SVGID_1_"  overflow="visible"/>
	</clipPath>
	<path clip-path="url(#SVGID_2_)" fill="#FFFFFF" d="M418.8,334.6c15.6-11.7,26.8-27.7,32.6-46.2L512,108.9H122.3L118,61.3
		c-1.5-16.8-9.1-32.3-21.5-43.6C84.1,6.3,68,0,51.1,0H0v40h51.1C65.3,40,77,50.6,78.2,64.8l31.3,346.8c0,0.1,0,0.1,0,0.2
		c3,30.6,26,54.5,55.4,59.5c7.8,23.4,29.9,40.3,55.9,40.3c25.5,0,47.3-16.3,55.5-39h47c8.2,22.7,30,39,55.5,39c32.5,0,59-26.4,59-59
		c0-32.5-26.4-59-59-59c-25.5,0-47.3,16.3-55.5,39h-47c-8.2-22.7-30-39-55.5-39c-24.6,0-45.8,15.2-54.6,36.7
		c-9.2-3.6-15.9-12.1-16.9-22.5l-5-55.2h220.4C384.3,352.8,403,346.5,418.8,334.6 M378.7,433.7c10.5,0,19,8.5,19,19
		c0,10.5-8.5,19-19,19c-10.5,0-19-8.5-19-19C359.7,442.2,368.3,433.7,378.7,433.7 M220.8,433.7c10.5,0,19,8.5,19,19
		c0,10.5-8.5,19-19,19s-19-8.5-19-19C201.9,442.2,210.4,433.7,220.8,433.7 M140.7,312.8L140.7,312.8l-14.8-163.9h330.4l-42.9,126.9
		l-0.2,0.5c-6.6,21.5-26.6,36.4-48.5,36.4H140.7z"/>
</g>
</svg>
