<?xml version="1.0" encoding="utf-8"?>
<!-- Generator: Adobe Illustrator 17.1.0, SVG Export Plug-In . SVG Version: 6.00 Build 0)  -->
<!DOCTYPE svg PUBLIC "-//W3C//DTD SVG 1.1//EN" "http://www.w3.org/Graphics/SVG/1.1/DTD/svg11.dtd">
<svg version="1.1" id="Layer_1" xmlns="http://www.w3.org/2000/svg" xmlns:xlink="http://www.w3.org/1999/xlink" x="0px" y="0px"
	 viewBox="0 78 612 634" enable-background="new 0 78 612 634" xml:space="preserve">
<g>
	<g>
		<defs>
			<rect id="SVGID_1_" y="90" width="612" height="612"/>
		</defs>
		<clipPath id="SVGID_2_">
			<use xlink:href="#SVGID_1_"  overflow="visible"/>
		</clipPath>
		<path clip-path="url(#SVGID_2_)" fill="#2D304A" d="M49.7,109.1l-17.2,17.2c-21,21-32.5,51.6-32.5,88c0,91.8,65,212.3,170.2,317.5
			c151.1,153,329,212.3,403.5,137.7l17.2-17.2c13.4-13.4,19.1-30.6,19.1-47.8c0-17.2-7.6-34.4-19.1-47.8l-68.8-68.9
			c-26.8-26.8-68.9-26.8-95.6,0L409.3,505c-19.1,19.1-65,9.6-143.4-68.8c-66.9-66.9-76.5-105.2-76.5-122.4c0-9.6,1.9-15.3,7.6-21
			l17.2-17.2c24.9-24.9,24.9-70.8,0-95.6l-68.8-70.8C132,95.7,114.8,90,97.5,90C78.4,90,63.1,95.7,49.7,109.1 M118.6,135.9
			l68.9,68.9c11.5,11.5,11.5,30.6,0,42.1L170.2,264c-13.4,13.4-19.1,30.6-19.1,49.7c0,40.2,30.6,91.8,88,151.1
			c120.5,120.5,179.8,88,198.9,68.9l17.2-17.2c11.5-11.5,30.6-11.5,42.1,0l68.9,68.8c11.5,11.5,11.5,30.6,0,42.1l-17.2,17.2
			c-57.4,57.4-218-5.7-350-137.7C103.3,411.3,40.2,296.6,40.2,218.1c0-26.8,7.7-47.8,21-61.2l15.3-21c5.7-3.8,13.4-7.6,21-7.6
			S112.8,130.2,118.6,135.9"/>
	</g>
</g>
</svg>
